<?xml version="1.0" encoding="utf-8"?>
<!-- Generator: Adobe Illustrator 23.0.6, SVG Export Plug-In . SVG Version: 6.00 Build 0)  -->
<svg version="1.1" id="Vrstva_1" xmlns="http://www.w3.org/2000/svg" xmlns:xlink="http://www.w3.org/1999/xlink" x="0px" y="0px" width="500px" height="128px" viewBox="0 0 600 153" xml:space="preserve">
    <path fill="white" d="M88.3,153l-24.1-41.7H16L0,83.6h80.3l40.1,69.4H88.3 M148.5,118.4l-24.1-41.8l24.1-41.7l-16-27.8L92.3,76.6l40.1,69.5
	L148.5,118.4z M32.1,69.7l24.1-41.8h48.1l16-27.8H40.2L0.1,69.7H32.1z M253.5,52.1V34.9h-67.2v17.2h23.5v66.2H230V52.1H253.5z
	M333.3,86.9V34.9h-20.1v50.3c0,2.3-0.3,4.4-0.8,6.5c-0.6,2-1.5,3.9-2.7,5.5c-1.3,1.6-2.9,2.9-4.9,3.8c-2,0.9-4.4,1.4-7.2,1.4
	c-2.8,0-5.2-0.5-7.2-1.4c-2-0.9-3.6-2.2-4.8-3.8c-1.2-1.6-2.1-3.4-2.7-5.5c-0.6-2-0.9-4.2-0.9-6.5V34.9h-20v51.9
	c0,5,0.8,9.6,2.5,13.7c1.6,4.1,4,7.7,7.1,10.6c3.1,2.9,6.8,5.2,11.2,6.9c4.4,1.6,9.3,2.5,14.8,2.5c5.4,0,10.3-0.8,14.8-2.5
	c4.4-1.6,8.2-3.9,11.4-6.9c3.1-2.9,5.6-6.5,7.2-10.6C332.5,96.5,333.3,91.9,333.3,86.9z M417.7,118.3L396,82.6
	c5.4-1.6,9.7-4.4,12.7-8.2c3.1-3.8,4.6-8.6,4.6-14.2c0-4.8-0.9-8.8-2.7-12c-1.8-3.2-4.2-5.8-7.2-7.8c-3-2-6.4-3.4-10.2-4.2
	c-3.8-0.8-7.7-1.2-11.7-1.2h-31.8v83.4h19.7V85.2h6.9l18.1,33.1H417.7z M392,65.7c-0.9,1.3-2.1,2.4-3.5,3.1c-1.4,0.7-3,1.2-4.7,1.5
	c-1.7,0.3-3.4,0.4-5.1,0.4h-9.6V51.2h10.8c1.5,0,3.1,0.1,4.7,0.4c1.6,0.2,3.1,0.7,4.4,1.4c1.3,0.7,2.4,1.6,3.2,2.8
	c0.8,1.2,1.2,2.8,1.2,4.8C393.4,62.6,392.9,64.3,392,65.7z M495.8,118.3L474,82.6c5.4-1.6,9.7-4.4,12.7-8.2
	c3.1-3.8,4.6-8.6,4.6-14.2c0-4.8-0.9-8.8-2.7-12c-1.8-3.2-4.2-5.8-7.2-7.8c-3-2-6.4-3.4-10.2-4.2c-3.8-0.8-7.7-1.2-11.7-1.2h-31.8
	v83.4h19.7V85.2h6.9l18.1,33.1H495.8z M470.1,65.7c-0.9,1.3-2.1,2.4-3.5,3.1c-1.4,0.7-3,1.2-4.7,1.5c-1.7,0.3-3.4,0.4-5.1,0.4h-9.6
	V51.2h10.8c1.5,0,3.1,0.1,4.7,0.4c1.6,0.2,3.1,0.7,4.4,1.4c1.3,0.7,2.4,1.6,3.2,2.8c0.8,1.2,1.2,2.8,1.2,4.8
	C471.4,62.6,471,64.3,470.1,65.7z M505.7,118.3h20.3V34.9h-20.3V118.3z M600,43.1c-3.7-3.4-8-5.9-12.9-7.7
	c-4.9-1.7-9.7-2.6-14.4-2.6c-3.9,0-7.8,0.5-11.7,1.5c-3.8,1-7.3,2.5-10.4,4.7c-3.1,2.1-5.5,4.8-7.4,8.1c-1.9,3.3-2.8,7.3-2.8,11.9
	c0,3.8,0.6,7,1.8,9.6c1.2,2.6,2.8,4.9,4.8,6.7c2,1.8,4.3,3.4,6.8,4.5c2.6,1.2,5.2,2.2,7.8,3.1c2.7,0.9,5.2,1.7,7.4,2.4
	c2.2,0.7,4,1.6,5.4,2.5c1.5,0.9,2.6,1.9,3.4,3c0.8,1.1,1.2,2.4,1.2,4c0,1.6-0.3,3.1-0.9,4.2c-0.6,1.2-1.5,2.1-2.5,2.8
	c-1.1,0.7-2.3,1.2-3.7,1.5c-1.4,0.3-2.9,0.5-4.4,0.5c-3.3,0-6.6-0.8-9.9-2.5c-3.3-1.7-6-3.8-8.1-6.3l-13.2,13.4
	c3.7,3.8,8.3,6.8,13.9,8.9c5.6,2.1,11.3,3.1,17.3,3.1c4.1,0,8-0.5,11.9-1.6c3.8-1.1,7.3-2.8,10.2-5.1c3-2.3,5.4-5.2,7.1-8.7
	c1.8-3.5,2.7-7.6,2.7-12.4c0-4.2-0.8-7.6-2.5-10.4c-1.6-2.8-3.7-5.1-6.2-7c-2.5-1.9-5.3-3.4-8.4-4.5c-3.1-1.1-6-2.2-8.8-3.1
	c-2-0.6-3.7-1.2-5.3-1.8c-1.6-0.6-2.9-1.2-4.1-1.9c-1.1-0.7-2-1.5-2.6-2.5c-0.6-0.9-0.9-2.1-0.9-3.5c0-1.6,0.4-3,1.1-4.1
	c0.7-1.1,1.7-1.9,2.8-2.6c1.1-0.7,2.3-1.1,3.7-1.4c1.4-0.2,2.7-0.4,4.1-0.4c2.6,0,5.3,0.6,8.1,1.9c2.8,1.3,5,3,6.8,5.2L600,43.1z" />
</svg>